<svg width="506" height="565" viewBox="0 0 506 565" fill="none" xmlns="http://www.w3.org/2000/svg">
<path d="M151.777 111.366L122.483 96.3793L123.255 95.9153C123.277 95.9013 126.272 93.8023 126.887 82.1153C127.116 77.7543 126.168 72.6153 125.25 67.6543C123.598 58.7193 121.891 49.4813 127.033 44.3383C135.106 36.2663 142.607 35.8643 151.382 37.7463C160.444 39.6883 170.551 48.4633 170.977 48.8353L171.105 48.9473L171.138 49.1133C171.727 51.9182 172.161 54.7535 172.438 57.6063C172.438 58.1643 172.387 59.0213 172.327 60.0123C172.189 62.3293 171.979 65.8313 172.412 67.1333C172.602 67.7003 173.089 68.9883 173.653 70.4783C175.526 75.4243 176.958 79.2783 176.958 80.2053C176.958 81.6493 173.152 83.7053 171.516 84.5263C170.156 85.2073 166.627 87.3823 166.627 89.2443C166.656 89.9597 166.751 90.671 166.909 91.3693C167.302 93.4093 167.747 95.7213 165.021 96.8113C162.105 97.9783 153.861 100.745 152.326 101.259C151.963 102.605 151.778 103.992 151.776 105.386L151.777 111.366ZM124.363 96.2173L150.777 109.732V105.383C150.771 103.8 150.997 102.224 151.448 100.706L151.527 100.468L151.764 100.39C151.864 100.358 161.473 97.1513 164.651 95.8803C166.515 95.1343 166.351 93.7503 165.928 91.5553C165.756 90.795 165.656 90.0203 165.628 89.2413C165.628 86.4313 170.513 83.9073 171.07 83.6293C173.658 82.3343 175.943 80.7293 175.959 80.2023C175.959 79.3863 173.931 74.0303 172.719 70.8303C172.128 69.2673 171.66 68.0303 171.465 67.4463C170.97 65.9613 171.165 62.6283 171.33 59.9463C171.389 58.9713 171.439 58.1283 171.439 57.6003C171.172 54.8701 170.756 52.1567 170.191 49.4723C168.98 48.4413 159.445 40.4903 151.172 38.7173C142.472 36.8543 135.519 37.2603 127.74 45.0393C122.97 49.8103 124.555 58.3863 126.233 67.4663C127.161 72.4893 128.121 77.6833 127.886 82.1663C127.394 91.5113 125.377 95.0213 124.363 96.2173Z" fill="white"/>
<path d="M155.471 46.6261C155.471 46.6261 163.219 50.5001 168.385 50.5001C175.485 50.5001 177.424 44.6891 174.841 40.8141C172.904 38.2321 169.778 37.9391 166.447 36.9401C159.991 35.0031 147.722 29.1921 138.037 31.1291C125.123 33.7121 120.603 48.5631 121.895 56.9571C123.187 65.3511 126.415 73.0991 126.415 76.9731C126.415 80.8471 126.415 85.3671 127.06 86.0131C127.705 86.6591 130.934 83.4301 132.871 80.2021C134.357 77.7261 136.1 75.0361 135.454 73.1021C134.808 71.1681 129.643 67.9371 132.871 63.4171C134.748 60.7901 138.037 60.8341 139.328 63.4171C141.002 67.2922 141.88 71.464 141.911 75.6851C141.911 80.2051 140.62 86.0161 141.911 90.5361C143.202 95.0561 154.179 106.678 160.636 107.969C167.093 109.26 171.613 107.969 172.259 103.45C172.905 98.9311 171.613 91.8271 172.259 91.1811C172.905 90.5351 172.337 89.4331 170.967 89.8901C169.999 90.2131 168.067 90.2131 168.067 89.5671C168.067 88.2761 168.39 87.9531 171.618 87.9531C174.846 87.9531 175.492 86.6621 174.846 85.3701C174.2 84.0781 172.264 82.1421 168.39 82.7871C164.516 83.4321 164.515 86.0161 161.29 85.3701C158.065 84.7241 154.19 76.9761 150.959 75.6851C147.728 74.3941 145.148 73.1021 145.148 67.9371C145.148 62.7721 149.022 59.5431 150.959 57.6051C152.507 56.0915 153.813 54.3496 154.833 52.4401C155.471 51.1461 155.471 46.6261 155.471 46.6261Z" fill="white"/>
<path d="M225.025 547.941C223.305 548.099 220.384 548.308 216.932 548.308C211.6 548.308 205.02 547.808 199.718 545.853C193.184 543.335 187.338 539.308 182.655 534.102C176.326 534.62 173.335 533.166 171.762 532.473C172.091 528.416 172.136 523.754 172.133 521.399C178.188 521.399 185.979 521.375 191.516 521.274C191.479 524.359 191.448 529.667 191.611 533.18C190.35 533.267 188.274 533.463 184.854 533.868C189.215 538.44 194.526 542 200.413 544.296C207.473 546.896 217.227 546.764 222.552 546.435C218.376 544.528 211.705 543.484 206.495 541.381C202.084 539.6 193.509 533.223 193.509 533.223C193.509 533.223 193.741 533.092 192.609 533.123C192.464 529.935 192.471 525.023 192.518 521.25C194.478 521.265 196.438 521.164 198.386 520.95C199.819 519.55 201.676 511.185 201.676 511.185L199.959 511.203C201.781 499.616 211.779 434.491 209.03 417.829C206.143 400.295 181.118 295.161 179.981 290.387C181.297 287.714 180.599 281.318 180.568 281.04C180.551 280.917 180.49 280.804 180.395 280.722C180.301 280.641 180.181 280.596 180.056 280.597C179.446 280.617 118.91 282.318 102.221 275.328C102.147 275.297 102.067 275.284 101.988 275.291C101.908 275.297 101.831 275.323 101.763 275.365C101.695 275.408 101.638 275.467 101.597 275.536C101.556 275.606 101.533 275.684 101.529 275.765C101.335 279.43 101.361 283.103 101.607 286.765C101.614 286.831 101.634 286.896 101.667 286.954C101.699 287.013 101.743 287.064 101.796 287.105C101.789 287.131 101.783 287.159 101.78 287.186L101.58 511.186H97.6621L99.6251 523.186H103.964C103.864 525.256 103.543 531.007 102.835 535.621C102.775 535.638 102.718 535.666 102.668 535.704C98.1301 539.366 100.039 558.869 100.039 558.869C100.039 558.869 104.505 563.089 125.123 564.203C147.323 565.403 161.552 566.045 161.559 557.277C161.556 556.621 161.414 555.974 161.143 555.377C160.871 554.78 160.476 554.248 159.983 553.815C158.183 553.998 155.119 554.238 151.5 554.238C145.911 554.238 139.014 553.663 133.456 551.408C126.488 548.401 120.351 543.752 115.57 537.859C108.456 538.499 105.364 536.524 103.816 535.822C104.541 531.113 104.868 525.237 104.965 523.186H125.753C125.583 525.571 125.115 532.528 125.101 536.786C123.795 536.879 121.59 537.106 117.875 537.586C122.338 542.77 127.913 546.881 134.185 549.61C141.585 552.61 151.809 552.455 157.391 552.076C153.013 549.876 146.021 548.676 140.56 546.248C135.936 544.195 126.948 536.843 126.948 536.843C126.948 536.843 127.178 536.7 126.097 536.729C126.116 533.046 126.476 527.046 126.755 523.183H130.171L134.316 511.183H133.435L151.599 368.193C157.234 392.944 165.999 431.55 166.447 433.922C166.924 436.479 165.247 484.348 164.205 511.58L161.559 511.608L162.938 521.373C162.938 521.373 166.393 521.388 171.138 521.389C171.138 523.676 171.1 528.164 170.792 532.124C170.638 532.097 170.479 532.133 170.351 532.224C166.022 535.4 167.842 552.315 167.842 552.315C167.842 552.315 172.103 555.975 191.773 556.941C212.953 557.982 226.527 558.541 226.533 550.934C226.522 550.354 226.381 549.784 226.12 549.266C225.859 548.748 225.485 548.295 225.025 547.941ZM179.617 281.617C179.809 283.672 179.993 288.009 179.124 289.888C174.983 290.595 170.775 291.144 166.568 291.56C167.595 288.411 168.096 285.115 168.051 281.803C173.906 281.76 178.164 281.657 179.617 281.617V281.617ZM167.051 281.81C167.102 285.16 166.571 288.493 165.482 291.661C161.211 292.061 156.949 292.319 152.763 292.461C153.319 288.901 153.22 285.27 152.471 281.746C157.814 281.827 162.81 281.835 167.051 281.81V281.81ZM138.196 281.322C142.674 281.522 147.16 281.648 151.446 281.722C152.227 285.259 152.329 288.913 151.746 292.489C146.834 292.626 142.046 292.597 137.481 292.429C137.007 288.715 137.249 284.944 138.196 281.322ZM124.252 280.422C128.403 280.792 132.776 281.071 137.175 281.278C136.258 284.907 136.021 288.674 136.475 292.39C131.987 292.203 127.739 291.883 123.844 291.456C123.27 287.785 123.408 284.038 124.252 280.42V280.422ZM111.835 278.871C115.269 279.465 119.135 279.944 123.248 280.33C122.424 283.941 122.277 287.674 122.813 291.339C119.016 290.919 115.243 290.306 111.508 289.503C110.953 285.969 111.064 282.362 111.835 278.869V278.871ZM102.49 276.524C105.207 277.492 108.005 278.219 110.85 278.695C110.094 282.165 109.962 285.743 110.462 289.259C107.711 288.711 105.056 287.762 102.58 286.444C102.366 283.141 102.336 279.828 102.49 276.522V276.524ZM167.423 433.75C166.856 430.75 154.007 374.307 151.959 365.315L160.734 296.242C160.743 296.177 160.738 296.11 160.721 296.047C160.703 295.984 160.674 295.924 160.634 295.872C160.594 295.82 160.543 295.777 160.486 295.744C160.429 295.711 160.366 295.69 160.301 295.682C160.17 295.667 160.038 295.704 159.933 295.785C159.829 295.865 159.76 295.984 159.742 296.115L151.002 364.915L150.851 364.95L150.945 365.364L132.419 511.193H102.577L102.777 287.699C109.053 291.007 125.664 293.631 145.237 293.631C156.571 293.656 167.888 292.745 179.072 290.906C180.888 298.534 205.203 400.762 208.041 417.999C210.741 434.372 200.633 500.399 198.941 511.222L165.199 511.579C165.728 497.635 167.998 436.834 167.423 433.748V433.75Z" fill="white"/>
<path d="M259.427 185.449C253.616 180.284 227.142 183.512 205.189 182.867C190.637 182.439 182.615 177.757 178.857 174.648C178.514 173.093 178.24 171.732 178.07 170.599C176.133 157.685 171.613 136.377 159.345 117.006C147.077 97.6352 130.934 93.7612 125.645 93.5662C120.356 93.3712 106.4 100.866 101.88 101.509C97.3601 102.152 91.7361 100.693 89.9351 104.415C85.0921 114.423 101.88 129.274 105.109 130.566C108.338 131.858 107.046 133.794 106.4 136.377C105.754 138.96 68.9501 198.363 74.7611 210.631C80.5721 222.899 95.4231 231.939 95.4231 231.939C95.4231 231.939 95.4231 264.224 99.9431 277.783C111.566 284.24 153.536 286.823 183.237 282.303C188.09 258.339 188.935 233.736 185.737 209.495C227.772 216.786 254.994 212.525 257.49 211.277C260.077 209.986 265.238 190.615 259.427 185.449Z" fill="#DF0C12"/>
<path d="M139.328 153.165C139.328 153.165 135.454 171.89 128.997 179.638C133.253 175.395 136.943 170.621 139.977 165.433L139.328 153.165Z" fill="white"/>
<path d="M128.997 180.138C128.873 180.138 128.752 180.091 128.66 180.007C128.565 179.92 128.507 179.8 128.499 179.672C128.49 179.544 128.531 179.417 128.613 179.318C134.913 171.754 138.8 153.25 138.839 153.064C138.863 152.945 138.93 152.838 139.027 152.764C139.124 152.691 139.245 152.655 139.366 152.664C139.487 152.673 139.601 152.726 139.686 152.813C139.771 152.9 139.822 153.015 139.828 153.136L140.474 165.404C140.479 165.497 140.458 165.589 140.413 165.67C137.351 170.895 133.634 175.707 129.351 179.99C129.305 180.037 129.25 180.074 129.189 180.099C129.128 180.125 129.063 180.138 128.997 180.138ZM139.015 156.726C137.907 161.168 135.691 168.993 132.553 175.026C135.137 171.997 137.45 168.748 139.467 165.315L139.015 156.726Z" fill="white"/>
<path d="M123.186 190.615C123.186 190.615 115.438 197.715 115.438 200.3C115.438 202.885 120.603 206.112 129.638 206.112C125.764 204.174 119.307 201.592 119.307 201.592C119.307 201.592 125.123 192.552 123.186 190.615Z" fill="white"/>
<path d="M129.643 206.611C120.56 206.611 114.943 203.336 114.943 200.3C114.943 197.576 122.043 190.988 122.853 190.246C122.948 190.159 123.073 190.112 123.202 190.114C123.331 190.117 123.454 190.17 123.545 190.261C125.486 192.202 121.506 199.031 120.06 201.353C121.716 202.026 126.687 204.072 129.872 205.664C129.973 205.714 130.054 205.797 130.101 205.899C130.149 206.001 130.161 206.116 130.135 206.226C130.109 206.336 130.046 206.435 129.957 206.505C129.867 206.575 129.757 206.612 129.643 206.611ZM123.057 191.417C120.123 194.17 115.938 198.668 115.938 200.3C115.938 202.268 119.946 205.031 127.266 205.532C123.588 203.843 119.18 202.077 119.127 202.056C119.059 202.029 118.997 201.987 118.947 201.933C118.896 201.879 118.859 201.814 118.836 201.744C118.814 201.674 118.807 201.599 118.817 201.526C118.826 201.453 118.852 201.383 118.892 201.321C120.99 198.057 123.444 193.169 123.057 191.417V191.417Z" fill="white"/>
<path d="M157.408 210.631C157.408 210.631 156.116 236.459 149.659 239.688C155.471 242.27 156.116 240.979 156.116 240.979C156.116 240.979 162.577 224.837 157.408 210.631Z" fill="white"/>
<path d="M155.077 241.803C153.115 241.619 151.206 241.056 149.458 240.145C149.371 240.107 149.296 240.045 149.243 239.966C149.19 239.887 149.16 239.795 149.158 239.699C149.156 239.604 149.181 239.511 149.23 239.43C149.279 239.348 149.35 239.283 149.435 239.24C155.559 236.178 156.895 210.862 156.907 210.607C156.913 210.492 156.958 210.382 157.036 210.296C157.114 210.21 157.219 210.154 157.333 210.137C157.447 210.12 157.564 210.143 157.663 210.202C157.762 210.261 157.838 210.353 157.877 210.461C163.047 224.681 156.645 241.002 156.577 241.161C156.445 241.438 156.082 241.803 155.077 241.803ZM150.707 239.593C154.462 241.154 155.507 240.793 155.69 240.7C156.169 239.444 161.097 225.963 157.731 213.324C157.227 219.738 155.515 235.636 150.705 239.593H150.707Z" fill="white"/>
<path d="M97.7241 232.585C111.487 239.501 126.987 242.197 142.277 240.333V239.042C127.12 240.636 111.805 238.417 97.7241 232.585V232.585Z" fill="white"/>
<path d="M132.999 241.421C120.667 241.42 108.504 238.544 97.478 233.021C97.367 232.958 97.2844 232.855 97.2473 232.732C97.2101 232.61 97.221 232.478 97.2779 232.364C97.3347 232.25 97.4331 232.162 97.5528 232.118C97.6725 232.074 97.8046 232.077 97.9219 232.127C120.122 241.64 141.987 238.58 142.205 238.548C142.276 238.538 142.349 238.542 142.418 238.562C142.487 238.583 142.551 238.617 142.605 238.664C142.659 238.711 142.703 238.769 142.733 238.835C142.763 238.9 142.778 238.971 142.778 239.043V240.334C142.779 240.456 142.735 240.575 142.654 240.667C142.574 240.759 142.462 240.819 142.341 240.834C139.243 241.228 136.122 241.424 132.999 241.421V241.421ZM115.65 238.449C124.212 240.425 133.05 240.914 141.777 239.893V239.609C133.057 240.447 124.262 240.056 115.65 238.449V238.449Z" fill="white"/>
<path d="M106.577 131.448C107.739 130.951 108.781 130.209 109.631 129.274C110.922 127.983 116.087 119.589 122.544 118.297C119.316 117.652 109.428 126.474 107.693 127.337C106.684 127.837 103.47 130.013 104.65 130.337C105.328 130.643 105.973 131.015 106.577 131.448Z" fill="white"/>
<path d="M110.508 126.561C110.316 126.809 110.136 127.043 109.969 127.261C109.513 127.861 109.118 128.369 108.919 128.568C108.257 129.261 107.497 129.853 106.664 130.327L106.529 130.237C106.309 130.091 106.076 129.937 105.837 129.796C106.549 129.199 107.32 128.676 108.137 128.233C108.969 127.737 109.763 127.179 110.51 126.562L110.508 126.561ZM122.177 118.262C118.627 118.262 109.365 126.503 107.691 127.335C106.682 127.835 103.468 130.011 104.648 130.335C105.325 130.64 105.971 131.011 106.575 131.442C107.737 130.945 108.779 130.203 109.629 129.268C110.92 127.977 116.085 119.583 122.542 118.291C122.422 118.269 122.3 118.258 122.177 118.258V118.262Z" fill="white"/>
<path d="M260.228 186.639C260.228 186.639 262.082 201.685 254.92 211.715C257.548 211.518 260.022 210.405 261.913 208.57C262.567 206.937 265.747 190.779 260.228 186.639Z" fill="white"/>
<path d="M253.948 212.216L254.514 211.424C261.481 201.666 259.75 186.849 259.731 186.7L259.588 185.534L260.527 186.239C266.559 190.763 262.827 207.647 262.377 208.756L262.277 208.915C260.296 210.854 257.689 212.024 254.923 212.215L253.948 212.216ZM260.848 187.956C261.116 191.803 261.317 202.808 255.922 211.131C258.005 210.727 259.931 209.745 261.481 208.297C262.177 206.324 264.645 192.851 260.848 187.956V187.956Z" fill="white"/>
<path d="M289.452 192.593C285.567 192.383 281.823 191.059 278.67 188.779L279.306 188.008C281.587 189.895 288.942 192.945 292.506 190.908C293.018 190.616 293.625 190.172 293.606 189.72C293.559 188.728 291.017 187.578 289.498 186.891C289.154 186.735 288.835 186.591 288.56 186.458C287.952 186.137 287.398 185.723 286.918 185.231C285.558 183.973 284.018 182.548 277.909 183.004C269.656 183.621 262.109 189.832 262.032 189.895L261.391 189.127C261.709 188.863 269.255 182.648 277.835 182.007C284.369 181.517 286.162 183.169 287.596 184.497C288.007 184.919 288.479 185.277 288.996 185.558C289.262 185.687 289.575 185.828 289.91 185.98C291.968 186.91 294.529 188.069 294.605 189.673C294.641 190.442 294.105 191.149 293.005 191.773C291.912 192.349 290.687 192.632 289.452 192.593V192.593Z" fill="white"/>
<path d="M280.902 213.252C277.678 213.252 273.434 211.946 269.678 210.79C269.106 210.614 268.55 210.443 268.02 210.284C265.134 209.547 262.161 209.202 259.183 209.259L259.154 208.259C262.24 208.194 265.319 208.553 268.307 209.326C268.84 209.486 269.398 209.657 269.972 209.834C273.564 210.934 278.013 212.321 281.125 212.249C284.049 212.188 290.425 208.486 292.825 207.093C293.35 206.793 293.725 206.572 293.887 206.493C294.268 206.308 296.795 204.781 299.787 202.835C301.338 201.828 302.771 200.861 303.941 200.035L304.603 200.783L304.454 200.89C303.338 201.69 301.892 202.663 300.338 203.671C297.628 205.434 294.838 207.148 294.325 207.395C294.173 207.47 293.825 207.676 293.325 207.965C290.633 209.528 284.33 213.189 281.147 213.256C281.065 213.251 280.984 213.252 280.902 213.252Z" fill="white"/>
<path d="M303.819 201.356L303.752 199.108L304.752 199.078L304.762 199.45C305.789 198.739 306.737 197.92 307.589 197.006C307.97 196.536 308.252 195.994 308.419 195.412C308.586 194.831 308.634 194.222 308.561 193.621C308.507 193.376 308.398 193.147 308.242 192.951C308.086 192.755 307.887 192.598 307.661 192.49C307.351 192.343 307.016 192.255 306.674 192.23C306.456 192.199 306.233 192.214 306.021 192.275C305.808 192.336 305.611 192.44 305.442 192.582C304.894 193.157 304.591 193.924 304.599 194.719L303.599 194.672C303.612 193.606 304.037 192.586 304.785 191.826C305.057 191.596 305.373 191.424 305.714 191.323C306.055 191.221 306.414 191.191 306.767 191.235C307.232 191.271 307.686 191.394 308.106 191.595C308.464 191.767 308.778 192.017 309.026 192.328C309.273 192.638 309.448 193 309.536 193.387C309.645 194.13 309.6 194.888 309.404 195.613C309.207 196.338 308.864 197.015 308.394 197.601C307.253 198.819 305.974 199.899 304.581 200.818L303.819 201.356Z" fill="white"/>
<path d="M307.854 192.542C307.775 192.542 307.696 192.523 307.626 192.487C307.555 192.451 307.494 192.398 307.448 192.334C307.409 192.281 307.381 192.22 307.366 192.156C307.351 192.092 307.349 192.025 307.359 191.96C307.37 191.895 307.393 191.833 307.428 191.777C307.463 191.721 307.508 191.672 307.562 191.634L319.468 183.065L308.134 171.134L287.592 185.31C287.483 185.385 287.349 185.414 287.218 185.39C287.088 185.366 286.972 185.292 286.897 185.183C286.859 185.129 286.832 185.068 286.818 185.003C286.804 184.938 286.802 184.872 286.814 184.806C286.826 184.741 286.851 184.679 286.887 184.624C286.923 184.568 286.969 184.52 287.024 184.483L307.924 170.064C308.022 169.997 308.141 169.966 308.259 169.979C308.378 169.991 308.488 170.046 308.57 170.132L320.593 182.788C320.642 182.84 320.679 182.901 320.703 182.969C320.726 183.036 320.735 183.108 320.728 183.179C320.721 183.25 320.699 183.319 320.664 183.381C320.628 183.443 320.58 183.496 320.522 183.538L308.151 192.438C308.066 192.504 307.962 192.54 307.854 192.542Z" fill="white"/>
<path d="M285.277 208.793C285.205 208.793 285.133 208.778 285.068 208.747C285.002 208.717 284.944 208.673 284.897 208.618L273.055 194.8C273.01 194.747 272.976 194.685 272.956 194.618C272.936 194.551 272.931 194.481 272.939 194.411C272.948 194.342 272.972 194.275 273.008 194.215C273.045 194.155 273.093 194.104 273.151 194.064L280.377 189.079C280.486 189.004 280.621 188.975 280.751 188.999C280.881 189.023 280.997 189.098 281.072 189.207C281.11 189.261 281.137 189.323 281.151 189.387C281.165 189.452 281.167 189.519 281.155 189.584C281.143 189.649 281.118 189.711 281.082 189.767C281.046 189.822 281 189.87 280.945 189.907L274.176 194.576L285.358 207.624L294.315 201.177C294.368 201.139 294.429 201.111 294.493 201.096C294.557 201.08 294.624 201.078 294.689 201.089C294.754 201.099 294.816 201.123 294.872 201.157C294.928 201.192 294.977 201.238 295.015 201.291C295.054 201.345 295.081 201.405 295.097 201.469C295.112 201.533 295.114 201.6 295.104 201.665C295.093 201.73 295.07 201.792 295.035 201.848C295 201.904 294.955 201.953 294.901 201.991L285.571 208.706C285.485 208.765 285.382 208.796 285.277 208.793Z" fill="white"/>
<path d="M303.577 201.393C303.496 201.394 303.415 201.374 303.343 201.335C303.226 201.274 303.138 201.168 303.099 201.041C303.06 200.915 303.073 200.778 303.134 200.66C304.382 198.296 303.964 195.108 303.501 194.744C303.165 194.564 302.794 194.456 302.413 194.43C302.031 194.404 301.649 194.459 301.291 194.592C299.976 195.054 299.445 196.755 299.246 197.727C299.233 197.792 299.207 197.853 299.17 197.907C299.133 197.962 299.086 198.008 299.031 198.044C298.976 198.08 298.915 198.105 298.85 198.118C298.786 198.13 298.72 198.13 298.655 198.116C298.591 198.103 298.529 198.078 298.475 198.041C298.42 198.004 298.374 197.957 298.337 197.902C298.301 197.847 298.276 197.785 298.264 197.721C298.251 197.656 298.252 197.59 298.265 197.525C298.507 196.346 299.179 194.275 300.959 193.649C301.457 193.463 301.99 193.388 302.519 193.43C303.049 193.473 303.563 193.631 304.025 193.893C305.165 194.587 305.36 198.588 304.019 201.127C303.977 201.208 303.913 201.275 303.835 201.322C303.757 201.369 303.668 201.393 303.577 201.393V201.393Z" fill="white"/>
<path d="M299.589 204.057C299.506 204.057 299.424 204.036 299.351 203.997C299.278 203.957 299.215 203.9 299.17 203.83C299.097 203.719 299.072 203.584 299.099 203.454C299.126 203.324 299.204 203.21 299.315 203.138L299.749 202.856C300.889 201.684 301.268 200.423 300.787 199.391C300.619 199.006 300.34 198.681 299.985 198.455C299.631 198.23 299.218 198.115 298.798 198.126C298.59 198.138 298.383 198.161 298.178 198.197C296.73 198.451 295.604 200.551 295.061 201.781C294.756 202.491 294.586 203.023 294.584 203.028C294.564 203.091 294.532 203.149 294.49 203.199C294.447 203.249 294.395 203.291 294.337 203.321C294.279 203.351 294.215 203.369 294.149 203.375C294.084 203.38 294.018 203.373 293.955 203.353C293.829 203.312 293.724 203.224 293.663 203.106C293.602 202.988 293.591 202.851 293.631 202.725C293.638 202.701 293.817 202.144 294.145 201.381C294.908 199.652 296.195 197.53 298.005 197.212C298.244 197.171 298.484 197.142 298.726 197.128C299.348 197.101 299.964 197.262 300.493 197.59C301.022 197.919 301.44 198.399 301.693 198.968C302.012 199.651 302.526 201.468 300.423 203.596C300.398 203.621 300.37 203.644 300.34 203.664L299.862 203.976C299.78 204.028 299.686 204.056 299.589 204.057V204.057Z" fill="white"/>
<path d="M463.277 315.693H256.277C256.144 315.693 256.017 315.641 255.924 315.547C255.83 315.453 255.777 315.326 255.777 315.193V299.193C255.777 299.061 255.83 298.934 255.924 298.84C256.017 298.746 256.144 298.693 256.277 298.693H463.277C463.41 298.693 463.537 298.746 463.631 298.84C463.724 298.934 463.777 299.061 463.777 299.193V315.193C463.777 315.326 463.724 315.453 463.631 315.547C463.537 315.641 463.41 315.693 463.277 315.693ZM256.777 314.693H462.777V299.693H256.777V314.693Z" fill="white"/>
<path d="M462.277 315.193H446.277V557.193H462.277V315.193Z" fill="white"/>
<path d="M462.777 557.693H445.777V314.693H462.777V557.693ZM446.777 556.693H461.777V315.693H446.777V556.693Z" fill="white"/>
<path d="M274.606 314.727L273.975 315.502L445.797 455.313L446.428 454.537L274.606 314.727Z" fill="white"/>
<path d="M363.277 292.693H298.277C298.144 292.693 298.017 292.641 297.923 292.547C297.83 292.453 297.777 292.326 297.777 292.193C297.777 292.061 297.83 291.934 297.923 291.84C298.017 291.746 298.144 291.693 298.277 291.693H363.277C363.409 291.693 363.537 291.746 363.63 291.84C363.724 291.934 363.777 292.061 363.777 292.193C363.777 292.326 363.724 292.453 363.63 292.547C363.537 292.641 363.409 292.693 363.277 292.693Z" fill="white"/>
<path d="M388.277 299.698H283.277C283.143 299.698 283.015 299.645 282.92 299.55C282.826 299.456 282.772 299.327 282.772 299.193V283.193C282.772 283.06 282.826 282.931 282.92 282.837C283.015 282.742 283.143 282.689 283.277 282.688H388.277C388.411 282.689 388.539 282.742 388.634 282.837C388.728 282.931 388.782 283.06 388.782 283.193V299.193C388.782 299.327 388.728 299.456 388.634 299.55C388.539 299.645 388.411 299.698 388.277 299.698V299.698ZM283.782 298.688H387.772V283.698H283.782V298.688Z" fill="white"/>
<path d="M380.277 283.425H284.277C284.144 283.425 284.017 283.373 283.923 283.279C283.83 283.185 283.777 283.058 283.777 282.925V270.193C283.777 270.061 283.83 269.934 283.923 269.84C284.017 269.746 284.144 269.693 284.277 269.693H380.277C380.409 269.693 380.537 269.746 380.63 269.84C380.724 269.934 380.777 270.061 380.777 270.193V282.925C380.777 283.058 380.724 283.185 380.63 283.279C380.537 283.373 380.409 283.425 380.277 283.425V283.425ZM284.777 282.425H379.777V270.693H284.777V282.425Z" fill="white"/>
<path d="M442.92 299.693H420.834C420.712 299.694 420.593 299.651 420.501 299.57C420.409 299.49 420.35 299.379 420.334 299.257L413.092 243.257C413.083 243.187 413.089 243.115 413.11 243.047C413.13 242.979 413.165 242.917 413.212 242.863C413.259 242.81 413.317 242.767 413.382 242.738C413.447 242.708 413.517 242.693 413.588 242.693H447.988C448.058 242.693 448.126 242.708 448.19 242.736C448.253 242.764 448.31 242.805 448.357 242.856C448.404 242.908 448.44 242.968 448.462 243.034C448.484 243.1 448.492 243.169 448.486 243.238L443.417 299.238C443.406 299.363 443.349 299.478 443.257 299.562C443.165 299.646 443.045 299.693 442.92 299.693V299.693ZM421.273 298.693H442.463L447.442 243.693H414.161L421.273 298.693Z" fill="white"/>
<path d="M451.967 243.705L408.877 243.693C408.792 243.693 408.709 243.672 408.635 243.631C408.561 243.59 408.498 243.531 408.453 243.459C408.408 243.388 408.382 243.306 408.377 243.221C408.373 243.137 408.389 243.053 408.426 242.976L411.362 236.876L411.646 236.295C411.687 236.212 411.75 236.141 411.829 236.092C411.907 236.042 411.998 236.015 412.091 236.014L449.106 235.694C449.205 235.699 449.3 235.731 449.382 235.786C449.465 235.841 449.531 235.917 449.573 236.006L452.429 243.018C452.46 243.094 452.472 243.177 452.464 243.258C452.455 243.34 452.427 243.418 452.381 243.486C452.335 243.554 452.273 243.609 452.201 243.647C452.129 243.685 452.049 243.705 451.967 243.705V243.705ZM409.677 242.693L451.227 242.705L448.777 236.693L412.411 237.007L409.677 242.693Z" fill="white"/>
<path d="M443.812 236.693H418.045C417.961 236.693 417.879 236.672 417.806 236.632C417.732 236.592 417.67 236.535 417.625 236.464C417.58 236.394 417.553 236.314 417.546 236.231C417.54 236.148 417.555 236.064 417.589 235.988L418.936 232.988C418.975 232.9 419.039 232.826 419.12 232.774C419.201 232.721 419.295 232.693 419.392 232.693H442.686C442.788 232.693 442.887 232.724 442.97 232.782C443.054 232.84 443.118 232.922 443.154 233.017L444.28 236.017C444.308 236.093 444.318 236.175 444.308 236.255C444.298 236.335 444.269 236.412 444.223 236.478C444.177 236.545 444.115 236.599 444.044 236.636C443.972 236.674 443.893 236.693 443.812 236.693ZM418.817 235.693H443.09L442.339 233.693H419.715L418.817 235.693Z" fill="white"/>
<path d="M435.798 233.556C435.715 233.556 435.633 233.536 435.56 233.497C435.444 233.434 435.357 233.327 435.32 233.2C435.282 233.072 435.297 232.936 435.36 232.819L441.53 221.348C441.594 221.232 441.701 221.145 441.828 221.108C441.955 221.07 442.092 221.085 442.208 221.148C442.324 221.212 442.411 221.318 442.448 221.445C442.486 221.572 442.471 221.709 442.408 221.825L436.238 233.296C436.195 233.375 436.131 233.441 436.054 233.487C435.976 233.532 435.888 233.556 435.798 233.556Z" fill="white"/>
<path d="M277.131 158.916C276.898 158.918 276.671 158.845 276.482 158.709C276.292 158.574 276.151 158.381 276.078 158.16C274.148 152.61 268.778 138.793 260.615 130.374C259.815 129.547 258.858 128.574 257.774 127.474C247.246 116.756 225.338 94.4519 216.365 75.8109C210.264 62.8035 209.515 47.9202 214.279 34.3659C217.92 24.5549 224.453 17.3569 233.173 13.5499C243.273 9.14189 253.656 8.93789 263.21 12.9619C274.518 17.7239 283.652 28.0219 288.928 41.9619C298.991 68.5389 290.473 108.362 284.5 129.734C280.165 145.242 278.713 153.621 278.256 157.919C278.234 158.175 278.124 158.414 277.943 158.597C277.763 158.78 277.525 158.893 277.269 158.919C277.223 158.92 277.177 158.919 277.131 158.916V158.916ZM249.106 11.0849C243.751 11.1239 238.462 12.2738 233.574 14.4619C225.108 18.1619 218.76 25.1619 215.217 34.7099C210.544 48.0088 211.28 62.6111 217.266 75.3729C226.166 93.8659 247.997 116.089 258.488 126.773C259.574 127.878 260.531 128.853 261.334 129.68C269.634 138.243 275.071 152.222 277.023 157.835C277.03 157.863 277.048 157.887 277.073 157.902C277.097 157.918 277.127 157.923 277.155 157.917C277.184 157.917 277.211 157.905 277.231 157.885C277.251 157.865 277.262 157.837 277.262 157.809V157.809C277.721 153.472 279.183 145.034 283.537 129.46C289.477 108.206 297.955 68.6209 287.993 42.3109C282.815 28.6339 273.876 18.5379 262.822 13.8819C258.484 12.0394 253.82 11.0882 249.106 11.0849V11.0849Z" fill="white"/>
<path d="M238.946 54.7837C238.838 54.7837 238.733 54.7486 238.646 54.6837L234.029 51.1837C233.977 51.1443 233.932 51.0949 233.899 51.0384C233.865 50.9819 233.843 50.9194 233.834 50.8544C233.825 50.7894 233.828 50.7232 233.845 50.6596C233.861 50.596 233.89 50.5362 233.929 50.4837C233.968 50.4312 234.018 50.3869 234.074 50.3535C234.131 50.32 234.193 50.298 234.258 50.2887C234.323 50.2794 234.39 50.283 234.453 50.2993C234.517 50.3156 234.577 50.3443 234.629 50.3837L239.247 53.8837C239.3 53.9231 239.344 53.9724 239.377 54.0289C239.411 54.0854 239.433 54.148 239.442 54.213C239.451 54.278 239.448 54.3442 239.431 54.4078C239.415 54.4714 239.386 54.5312 239.347 54.5837C239.3 54.6459 239.24 54.6964 239.17 54.7311C239.101 54.7658 239.024 54.7839 238.946 54.7837Z" fill="white"/>
<path d="M252.396 49.8489C252.286 49.8489 252.179 49.8127 252.092 49.7458C252.005 49.6789 251.942 49.5851 251.913 49.4789L250.245 43.2689C250.228 43.2055 250.224 43.1393 250.232 43.0742C250.241 43.009 250.262 42.9462 250.295 42.8893C250.327 42.8323 250.371 42.7824 250.423 42.7424C250.475 42.7023 250.535 42.673 250.598 42.6559C250.662 42.6388 250.728 42.6344 250.793 42.6429C250.858 42.6514 250.921 42.6726 250.978 42.7054C251.035 42.7382 251.085 42.7818 251.125 42.8339C251.165 42.886 251.194 42.9455 251.211 43.0089L252.879 49.2189C252.896 49.2823 252.901 49.3485 252.892 49.4137C252.884 49.4788 252.863 49.5416 252.83 49.5985C252.797 49.6555 252.753 49.7054 252.701 49.7454C252.649 49.7855 252.59 49.8149 252.526 49.8319C252.484 49.843 252.44 49.8487 252.396 49.8489V49.8489Z" fill="white"/>
<path d="M265.057 49.8487C264.996 49.8484 264.935 49.8372 264.878 49.8157C264.817 49.7922 264.76 49.7568 264.713 49.7116C264.665 49.6663 264.627 49.6121 264.6 49.552C264.573 49.4919 264.558 49.4271 264.557 49.3613C264.555 49.2955 264.566 49.2301 264.59 49.1687L266.978 42.9597C267.002 42.8982 267.037 42.842 267.082 42.7943C267.128 42.7465 267.182 42.7082 267.242 42.6814C267.302 42.6546 267.367 42.64 267.433 42.6383C267.498 42.6367 267.564 42.648 267.625 42.6717C267.687 42.6953 267.743 42.7307 267.79 42.776C267.838 42.8213 267.876 42.8756 267.903 42.9357C267.93 42.9958 267.944 43.0605 267.946 43.1262C267.947 43.192 267.936 43.2574 267.912 43.3187L265.524 49.5277C265.488 49.6222 265.424 49.7034 265.34 49.7607C265.257 49.818 265.158 49.8487 265.057 49.8487Z" fill="white"/>
<path d="M258.784 96.0306C258.43 96.031 258.085 95.9151 257.803 95.7007C257.632 95.5719 257.487 95.4104 257.379 95.2255C257.27 95.0407 257.199 94.8361 257.17 94.6237C257.11 94.1945 257.223 93.759 257.484 93.413C257.745 93.0669 258.132 92.8384 258.561 92.7777L266.681 91.6407C266.894 91.6104 267.111 91.6227 267.319 91.6768C267.527 91.7309 267.722 91.8256 267.893 91.9557C268.065 92.0844 268.209 92.246 268.318 92.4311C268.427 92.6162 268.497 92.821 268.526 93.0337C268.556 93.246 268.544 93.4623 268.491 93.67C268.437 93.8777 268.343 94.0726 268.213 94.2437C268.084 94.4154 267.922 94.56 267.737 94.6689C267.552 94.7779 267.347 94.8492 267.134 94.8786L259.014 96.0147C258.938 96.0254 258.861 96.0308 258.784 96.0306V96.0306ZM266.91 92.6247C266.88 92.6247 266.85 92.6247 266.82 92.6307L258.7 93.7686C258.618 93.7802 258.538 93.8079 258.466 93.8501C258.395 93.8923 258.332 93.9483 258.282 94.0148C258.232 94.0813 258.195 94.157 258.174 94.2376C258.153 94.3182 258.149 94.4022 258.16 94.4847C258.186 94.6501 258.275 94.799 258.409 94.8998C258.542 95.0006 258.71 95.0454 258.876 95.0247L266.996 93.8877C267.079 93.8765 267.158 93.8489 267.23 93.8067C267.302 93.7645 267.364 93.7084 267.414 93.6416C267.464 93.5752 267.501 93.4995 267.522 93.4188C267.543 93.3382 267.548 93.2542 267.536 93.1716C267.513 93.0054 267.425 92.8551 267.291 92.7536C267.182 92.6703 267.048 92.625 266.91 92.6247V92.6247Z" fill="white"/>
<path d="M260.745 98.3789C260.381 98.3792 260.027 98.2598 259.737 98.0389C259.56 97.9067 259.411 97.7405 259.299 97.5501C259.187 97.3597 259.115 97.1488 259.085 96.9299C259.044 96.7055 259.048 96.4752 259.098 96.2525C259.147 96.0298 259.241 95.8192 259.373 95.6333C259.505 95.4474 259.673 95.2899 259.867 95.1701C260.062 95.0503 260.278 94.9707 260.503 94.9359L265.403 94.2499C265.845 94.1886 266.293 94.3047 266.649 94.5729C267.005 94.8412 267.24 95.2396 267.303 95.6809C267.344 95.9054 267.34 96.1358 267.291 96.3586C267.241 96.5814 267.147 96.7919 267.015 96.9779C266.883 97.1638 266.715 97.3213 266.52 97.441C266.326 97.5607 266.11 97.6403 265.884 97.6749L260.984 98.3619C260.905 98.3732 260.825 98.3788 260.745 98.3789V98.3789ZM265.639 95.2339C265.608 95.2334 265.577 95.2354 265.546 95.2399L260.641 95.9259C260.462 95.9515 260.301 96.0468 260.192 96.1911C260.083 96.3355 260.036 96.517 260.061 96.6959C260.067 96.8011 260.095 96.904 260.143 96.9978C260.19 97.0917 260.257 97.1745 260.339 97.2409C260.482 97.3482 260.662 97.3952 260.839 97.3719L265.739 96.6849C265.918 96.6599 266.08 96.5648 266.189 96.4206C266.298 96.2764 266.345 96.0949 266.32 95.9159C266.311 95.7383 266.236 95.5703 266.11 95.4444C265.985 95.3185 265.817 95.2436 265.639 95.2339V95.2339Z" fill="white"/>
<path d="M262.594 100.545C262.219 100.544 261.856 100.408 261.573 100.161C261.29 99.9149 261.105 99.5746 261.052 99.2029C261.024 99.0003 261.036 98.794 261.087 98.596C261.139 98.3979 261.229 98.212 261.352 98.0489C261.475 97.8859 261.63 97.7489 261.806 97.6459C261.982 97.5429 262.178 97.4759 262.38 97.4489L264.555 97.1439C264.758 97.1156 264.964 97.1275 265.163 97.1789C265.361 97.2304 265.547 97.3205 265.71 97.4439C265.873 97.567 266.01 97.7212 266.113 97.8977C266.216 98.0742 266.283 98.2694 266.31 98.4719C266.367 98.8807 266.259 99.2953 266.011 99.6247C265.762 99.9541 265.393 100.171 264.984 100.229V100.229L262.809 100.534C262.738 100.542 262.666 100.546 262.594 100.545ZM264.771 98.1249C264.745 98.125 264.719 98.127 264.693 98.1309L262.517 98.4309C262.445 98.4408 262.375 98.465 262.312 98.5021C262.249 98.5392 262.194 98.5884 262.15 98.6469C262.106 98.7053 262.073 98.772 262.055 98.8431C262.037 98.9142 262.033 98.9883 262.043 99.0609C262.066 99.2065 262.144 99.3376 262.262 99.4263C262.379 99.515 262.527 99.5543 262.673 99.5359L264.847 99.2309C264.92 99.2208 264.989 99.1966 265.053 99.1595C265.116 99.1224 265.171 99.0733 265.215 99.0149C265.259 98.9565 265.291 98.8899 265.31 98.8191C265.328 98.7482 265.332 98.6744 265.322 98.6019C265.312 98.5293 265.288 98.4594 265.251 98.3962C265.214 98.333 265.165 98.2778 265.106 98.2339C265.009 98.162 264.892 98.1237 264.771 98.1249V98.1249Z" fill="white"/>
<path d="M259.277 93.6818C259.164 93.6816 259.055 93.6434 258.967 93.5733C258.879 93.5033 258.817 93.4055 258.791 93.2958C258.572 92.3658 258.234 91.0428 258.004 90.3748C257.397 88.7557 256.36 87.3329 255.004 86.2598C252.246 84.1165 249.95 81.4357 248.258 78.3798C246.74 75.2348 246.975 69.0668 248.715 66.3798C249.779 64.7224 251.202 63.326 252.88 62.2947C254.557 61.2634 256.446 60.6235 258.405 60.4228C260.61 60.1601 262.846 60.4827 264.887 61.3581C266.928 62.2335 268.703 63.6309 270.033 65.4098C271.84 68.0098 272.991 74.0818 272.233 77.0168C271.531 79.4746 270.487 81.8218 269.133 83.9898L268.976 84.2268C268.142 85.376 267.434 86.611 266.863 87.9108C266.646 89.3331 266.576 90.7741 266.656 92.2108C266.66 92.3432 266.61 92.4717 266.519 92.5678C266.428 92.664 266.302 92.7201 266.17 92.7238C266.103 92.7303 266.036 92.7224 265.973 92.7006C265.909 92.6789 265.851 92.6438 265.802 92.5978C265.754 92.5517 265.715 92.4957 265.69 92.4336C265.665 92.3715 265.653 92.3048 265.656 92.2378C265.579 90.7001 265.661 89.1585 265.902 87.6378C266.495 86.235 267.247 84.9052 268.144 83.6748L268.302 83.4368C269.59 81.3598 270.587 79.1159 271.264 76.7678C271.955 74.0998 270.864 68.3548 269.214 65.9838C267.982 64.3668 266.353 63.0962 264.485 62.2956C262.616 61.4949 260.572 61.1915 258.552 61.4148C256.731 61.5866 254.974 62.1724 253.414 63.1274C251.854 64.0823 250.533 65.3812 249.552 66.9248C247.991 69.3368 247.784 75.1068 249.152 77.9488C250.776 80.8495 252.961 83.3988 255.578 85.4488C257.105 86.6402 258.27 88.2329 258.943 90.0488C259.257 90.9598 259.677 92.7258 259.758 93.0718C259.788 93.2007 259.766 93.3362 259.696 93.4486C259.626 93.5611 259.515 93.6413 259.386 93.6718C259.35 93.6787 259.314 93.682 259.277 93.6818V93.6818Z" fill="white"/>
<path d="M261.802 93.1327C261.695 93.1325 261.59 93.0976 261.504 93.0333C261.418 92.969 261.355 92.8787 261.324 92.7757L256.936 78.1497C256.917 78.0868 256.911 78.0208 256.917 77.9554C256.924 77.8901 256.943 77.8267 256.974 77.7688C257.006 77.711 257.048 77.6598 257.099 77.6183C257.15 77.5767 257.208 77.5456 257.271 77.5267C257.398 77.4888 257.535 77.5029 257.652 77.5659C257.768 77.629 257.855 77.7357 257.893 77.8627L262.281 92.4887C262.3 92.5516 262.306 92.6176 262.3 92.683C262.293 92.7484 262.274 92.8118 262.243 92.8696C262.212 92.9275 262.169 92.9787 262.118 93.0202C262.068 93.0617 262.009 93.0928 261.946 93.1117C261.899 93.1255 261.851 93.1326 261.802 93.1327Z" fill="white"/>
<path d="M263.62 92.8927C263.499 92.8925 263.382 92.8483 263.291 92.7683C263.2 92.6883 263.141 92.5779 263.125 92.4577L261.111 77.0627C261.103 76.9976 261.107 76.9314 261.124 76.868C261.142 76.8046 261.171 76.7452 261.211 76.6932C261.251 76.6412 261.301 76.5976 261.358 76.5649C261.415 76.5322 261.478 76.5111 261.543 76.5027C261.674 76.4857 261.807 76.5214 261.912 76.602C262.017 76.6826 262.086 76.8015 262.103 76.9327L264.117 92.3327C264.125 92.3978 264.121 92.464 264.104 92.5274C264.087 92.5908 264.057 92.6502 264.017 92.7022C263.977 92.7542 263.927 92.7978 263.87 92.8305C263.813 92.8632 263.75 92.8843 263.685 92.8927C263.663 92.8942 263.642 92.8942 263.62 92.8927V92.8927Z" fill="white"/>
<path d="M257.477 77.8808C257.19 77.8879 256.909 77.7978 256.68 77.6251C256.451 77.4525 256.287 77.2075 256.214 76.9298C256.12 76.1971 256.212 75.4524 256.482 74.7648C255.359 74.4778 254.541 76.3498 254.533 76.3698C254.482 76.4918 254.384 76.5885 254.261 76.6385C254.139 76.6886 254.001 76.688 253.879 76.6368C253.819 76.6114 253.763 76.5744 253.717 76.5277C253.671 76.481 253.634 76.4257 253.609 76.3649C253.584 76.304 253.572 76.2389 253.572 76.1731C253.572 76.1074 253.586 76.0424 253.611 75.9818C253.659 75.8698 254.784 73.2448 256.783 73.8108C256.828 73.8228 256.873 73.8368 256.916 73.8498C256.945 73.8028 256.975 73.7558 257.007 73.7088C257.225 73.3605 257.514 73.0627 257.856 72.8353C258.198 72.608 258.585 72.4565 258.99 72.3908C259.923 72.2539 260.874 72.4727 261.653 73.0038C262.262 72.2237 263.091 71.6438 264.032 71.3388C264.16 71.306 264.297 71.3255 264.411 71.393C264.525 71.4605 264.607 71.5705 264.64 71.6988C264.657 71.7624 264.66 71.8286 264.651 71.8937C264.642 71.9587 264.62 72.0213 264.586 72.0779C264.553 72.1345 264.509 72.1839 264.456 72.2233C264.404 72.2628 264.344 72.2915 264.28 72.3078C263.531 72.5582 262.874 73.0274 262.394 73.6548C262.82 74.1063 263.084 74.6862 263.145 75.3038C263.141 75.7856 262.968 76.2508 262.658 76.6194C262.348 76.9881 261.919 77.2371 261.445 77.3238C261.303 77.3384 261.159 77.3237 261.023 77.2806C260.887 77.2374 260.761 77.1668 260.653 77.0731C260.546 76.9793 260.458 76.8645 260.396 76.7356C260.335 76.6067 260.3 76.4665 260.295 76.3238C260.27 75.4237 260.541 74.5402 261.066 73.8088C260.498 73.4318 259.811 73.2776 259.136 73.3758C258.868 73.4218 258.613 73.5252 258.389 73.6788C258.165 73.8324 257.976 74.0326 257.836 74.2658L257.829 74.2748C258.197 74.5482 258.48 74.9202 258.646 75.3477C258.811 75.7753 258.852 76.2409 258.764 76.6908C258.748 76.9979 258.619 77.2883 258.403 77.5064C258.186 77.7245 257.896 77.855 257.589 77.8728C257.549 77.8798 257.512 77.8808 257.477 77.8808ZM257.388 75.2008C257.215 75.6786 257.146 76.1882 257.188 76.6948C257.212 76.7585 257.258 76.8119 257.317 76.8456C257.377 76.8794 257.446 76.8915 257.513 76.8798C257.548 76.8793 257.582 76.8719 257.614 76.858C257.645 76.8442 257.674 76.8242 257.698 76.7991C257.722 76.7741 257.741 76.7445 257.753 76.7122C257.765 76.6799 257.771 76.6454 257.77 76.6108C257.83 76.3625 257.826 76.1032 257.759 75.8568C257.692 75.6103 257.564 75.3847 257.387 75.2008H257.388ZM261.797 74.5058C261.459 74.9996 261.279 75.5844 261.281 76.1828C261.284 76.2373 261.301 76.2903 261.329 76.3368V76.3368C261.472 76.3091 261.604 76.2431 261.712 76.1458C261.839 76.0524 261.943 75.9323 262.018 75.7941C262.094 75.6559 262.137 75.5028 262.147 75.3458C262.109 75.039 261.988 74.7485 261.796 74.5058H261.797Z" fill="white"/>
<path d="M297.536 92.676C297.493 92.6761 297.45 92.6707 297.408 92.66C297.296 92.6303 297.197 92.5621 297.129 92.4674C297.061 92.3726 297.029 92.2572 297.037 92.141C297.048 91.984 298.147 76.316 297.837 68.474C297.763 66.639 297.395 63.628 296.929 59.814C295.429 47.576 292.929 27.093 297.178 16.837C303.178 2.35302 317.886 -1.72398 329.009 0.618018C332.65 1.40515 336.095 2.91764 339.139 5.06525C342.183 7.21286 344.763 9.95159 346.725 13.118C350.887 19.977 351.71 28.529 349.105 37.851C346.712 46.42 332.965 56.892 321.918 65.306C318.222 67.9887 314.666 70.8591 311.264 73.906C305.924 79.3574 301.447 85.5914 297.987 92.393C297.946 92.4779 297.882 92.5495 297.802 92.5995C297.723 92.6496 297.63 92.6761 297.536 92.676V92.676ZM322.966 0.999019C313.398 0.999019 302.877 5.68102 298.097 17.22C293.95 27.233 296.433 47.552 297.918 59.693C298.386 63.528 298.756 66.558 298.832 68.434C299.074 74.49 298.483 85.147 298.188 89.859C301.52 83.7575 305.684 78.1485 310.56 73.193C313.99 70.1152 317.577 67.217 321.307 64.51C331.658 56.625 345.834 45.827 348.137 37.581C350.666 28.532 349.881 20.253 345.865 13.636C343.975 10.5852 341.49 7.94645 338.557 5.87733C335.625 3.8082 332.306 2.3511 328.798 1.59302C326.88 1.19416 324.925 0.995102 322.966 0.999019V0.999019Z" fill="white"/>
<path d="M319.777 43.6929C316.596 43.6894 313.546 42.424 311.296 40.1744C309.046 37.9247 307.781 34.8744 307.777 31.6929C307.781 28.5113 309.046 25.4611 311.296 23.2114C313.546 20.9617 316.596 19.6963 319.777 19.6929C322.959 19.6963 326.009 20.9617 328.259 23.2114C330.508 25.4611 331.774 28.5113 331.777 31.6929C331.774 34.8744 330.508 37.9247 328.259 40.1744C326.009 42.424 322.959 43.6894 319.777 43.6929V43.6929ZM319.777 20.6929C316.861 20.6963 314.065 21.8563 312.003 23.9185C309.941 25.9806 308.781 28.7765 308.777 31.6929C308.781 34.6092 309.941 37.4051 312.003 39.4672C314.065 41.5294 316.861 42.6894 319.777 42.6929C322.694 42.6894 325.49 41.5294 327.552 39.4672C329.614 37.4051 330.774 34.6092 330.777 31.6929C330.774 28.7765 329.614 25.9806 327.552 23.9185C325.49 21.8563 322.694 20.6963 319.777 20.6929V20.6929Z" fill="white"/>
<path d="M311.745 32.5737C311.629 32.5734 311.517 32.5328 311.427 32.4587C311.338 32.3846 311.277 32.2817 311.255 32.1677C310.97 30.5898 311.136 28.9635 311.734 27.4757C312.048 26.8166 312.493 26.228 313.04 25.7451C313.588 25.2622 314.227 24.895 314.92 24.6657C314.984 24.6486 315.05 24.6441 315.115 24.6526C315.18 24.6611 315.243 24.6824 315.3 24.7151C315.357 24.7479 315.407 24.7916 315.447 24.8437C315.487 24.8958 315.516 24.9552 315.533 25.0187C315.567 25.1466 315.549 25.2829 315.483 25.3977C315.417 25.5124 315.308 25.5962 315.18 25.6307C314.624 25.822 314.113 26.1228 313.675 26.5153C313.237 26.9077 312.883 27.3839 312.632 27.9157C312.132 29.2091 311.994 30.6145 312.232 31.9807C312.245 32.0454 312.244 32.1118 312.231 32.1763C312.217 32.2408 312.191 32.3019 312.154 32.3563C312.117 32.4106 312.069 32.4571 312.014 32.493C311.959 32.529 311.897 32.5537 311.832 32.5657C311.804 32.5704 311.774 32.5731 311.745 32.5737V32.5737Z" fill="white"/>
<path d="M313.855 37.43C313.775 37.4302 313.696 37.411 313.624 37.374C312.84 36.8325 312.252 36.0505 311.951 35.146C311.929 35.0841 311.92 35.0185 311.923 34.9529C311.927 34.8874 311.943 34.8231 311.972 34.7639C312 34.7046 312.04 34.6515 312.088 34.6076C312.137 34.5637 312.194 34.5299 312.256 34.508C312.318 34.4862 312.384 34.4767 312.449 34.4802C312.515 34.4837 312.579 34.5001 312.638 34.5284C312.698 34.5567 312.751 34.5964 312.795 34.6453C312.839 34.6941 312.872 34.7511 312.894 34.813C313.113 35.4791 313.529 36.063 314.087 36.487C314.145 36.5175 314.197 36.5591 314.239 36.6095C314.281 36.6599 314.313 36.7181 314.332 36.7808C314.352 36.8435 314.359 36.9094 314.353 36.9748C314.347 37.0403 314.329 37.1039 314.298 37.162C314.256 37.2429 314.192 37.3106 314.114 37.3578C314.036 37.4051 313.946 37.4301 313.855 37.43V37.43Z" fill="white"/>
<path d="M307.445 59.8369C307.186 59.8369 306.93 59.7831 306.692 59.6789C306.468 59.58 306.267 59.4372 306.099 59.2589C305.932 59.0806 305.802 58.8704 305.717 58.6409C305.634 58.4182 305.596 58.181 305.606 57.9435C305.616 57.706 305.674 57.4728 305.775 57.2579L313.199 41.3579C313.227 41.2983 313.266 41.2447 313.315 41.2003C313.363 41.1559 313.42 41.1215 313.482 41.099C313.543 41.0765 313.609 41.0664 313.675 41.0693C313.74 41.0722 313.805 41.088 313.864 41.1159C313.984 41.1721 314.077 41.2735 314.122 41.398C314.167 41.5225 314.161 41.6598 314.105 41.7799L306.68 57.6799C306.635 57.775 306.61 57.8782 306.606 57.9833C306.602 58.0885 306.618 58.1934 306.655 58.2919C306.694 58.3958 306.753 58.4909 306.829 58.5716C306.905 58.6523 306.996 58.717 307.097 58.7619C307.303 58.8526 307.537 58.8606 307.748 58.7841C307.96 58.7075 308.135 58.5524 308.235 58.3509L315.673 42.4069C315.729 42.2868 315.831 42.1938 315.955 42.1485C316.08 42.1031 316.217 42.109 316.337 42.1649C316.397 42.1926 316.45 42.2318 316.495 42.2803C316.539 42.3287 316.574 42.3854 316.596 42.4472C316.619 42.509 316.629 42.5746 316.626 42.6402C316.623 42.7059 316.607 42.7703 316.579 42.8299L309.14 58.7749C308.987 59.0943 308.747 59.3637 308.447 59.5517C308.147 59.7397 307.799 59.8386 307.445 59.8369V59.8369Z" fill="white"/>
<path d="M287.185 161.293C287.095 161.293 287.007 161.269 286.929 161.223C286.846 161.173 286.779 161.1 286.736 161.013C286.693 160.925 286.677 160.828 286.689 160.731C286.739 160.339 291.789 121.309 304.264 98.5921C316.13 76.9921 333.234 65.5011 348.9 68.5921C354.344 69.6691 359.365 73.5171 363.038 79.4251C368.727 88.5791 370.515 101.506 367.591 112.358C363.121 128.98 352.436 139.848 335.835 144.658C328.918 146.643 321.902 148.265 314.815 149.518C312.003 150.046 309.574 150.501 307.534 151.028C302.086 152.442 293.834 156.628 287.477 161.197C287.392 161.259 287.29 161.293 287.185 161.293ZM343.777 69.0931C329.966 69.0931 315.543 80.1311 305.141 99.0711C293.941 119.45 288.766 153.132 287.841 159.719C294.141 155.345 301.999 151.432 307.287 150.06C309.36 149.524 311.804 149.065 314.635 148.534C321.69 147.288 328.674 145.673 335.56 143.696C351.802 138.991 362.26 128.36 366.631 112.096C369.485 101.496 367.743 88.8811 362.192 79.9511C358.667 74.2801 353.88 70.5941 348.711 69.5721C347.086 69.2541 345.433 69.0963 343.777 69.1011V69.0931Z" fill="white"/>
<path d="M312.767 127.755C312.716 127.755 312.665 127.747 312.615 127.731C312.542 127.708 312.475 127.667 312.419 127.613C312.364 127.559 312.322 127.493 312.296 127.42L308.584 116.805C308.56 116.736 308.551 116.661 308.558 116.588C308.566 116.514 308.591 116.443 308.629 116.38C308.668 116.317 308.72 116.263 308.782 116.223C308.843 116.182 308.913 116.156 308.986 116.145L314.17 115.419L334.311 100.771C334.365 100.732 334.425 100.704 334.489 100.689C334.553 100.673 334.619 100.671 334.684 100.681C334.749 100.691 334.812 100.714 334.868 100.748C334.924 100.783 334.973 100.828 335.011 100.881C335.05 100.934 335.078 100.995 335.094 101.059C335.109 101.123 335.112 101.189 335.102 101.254C335.092 101.319 335.069 101.382 335.034 101.438C335 101.494 334.955 101.543 334.901 101.581L314.659 116.302C314.593 116.351 314.516 116.382 314.434 116.393L309.734 117.051L313.026 126.464L315.777 124.517C315.846 124.469 315.926 124.438 316.009 124.428L342.05 121.413C342.182 121.398 342.314 121.436 342.418 121.518C342.522 121.6 342.589 121.721 342.604 121.852C342.62 121.984 342.582 122.116 342.5 122.22C342.417 122.324 342.297 122.391 342.165 122.406L316.251 125.406L313.062 127.663C312.976 127.724 312.873 127.757 312.767 127.755Z" fill="white"/>
<path d="M322.713 128.339C322.048 128.395 321.379 128.293 320.761 128.039C320.38 127.773 320.061 127.139 320.34 124.318C320.355 124.187 320.42 124.067 320.522 123.983C320.625 123.899 320.756 123.859 320.887 123.87C320.953 123.877 321.016 123.896 321.074 123.927C321.132 123.957 321.184 123.999 321.225 124.05C321.267 124.101 321.299 124.159 321.318 124.222C321.337 124.285 321.344 124.351 321.337 124.416C321.1 126.823 321.36 127.238 321.371 127.255C322.017 127.576 326.433 127.186 326.948 126.715C327.077 125.695 327.077 124.662 326.948 123.641C326.944 123.576 326.952 123.51 326.973 123.448C326.994 123.385 327.026 123.328 327.07 123.278C327.113 123.229 327.165 123.188 327.224 123.159C327.283 123.129 327.347 123.112 327.412 123.107C327.544 123.102 327.672 123.146 327.771 123.233C327.871 123.319 327.933 123.44 327.946 123.57C328.154 126.521 327.889 127.044 327.802 127.215C327.648 127.525 327.277 127.738 326.562 127.922C325.298 128.198 324.007 128.337 322.713 128.339V128.339Z" fill="white"/>
<path d="M342.838 124.443C342.772 124.443 342.707 124.43 342.646 124.404C342.582 124.378 342.525 124.338 342.477 124.288C342.429 124.238 342.392 124.178 342.368 124.113L341.631 122.079L333.131 98.5571C333.09 98.442 333.092 98.3156 333.137 98.2019C333.182 98.0882 333.268 97.995 333.377 97.9401L337.516 95.8611C337.579 95.8297 337.647 95.8117 337.717 95.8082C337.786 95.8048 337.856 95.816 337.921 95.8411C337.986 95.8662 338.045 95.9047 338.095 95.9539C338.144 96.0032 338.182 96.0622 338.207 96.1271L348.079 121.527C348.125 121.645 348.125 121.777 348.078 121.894C348.03 122.012 347.94 122.107 347.825 122.161L343.053 124.395C342.986 124.427 342.913 124.444 342.838 124.443V124.443ZM342.571 121.738L343.122 123.257L346.973 121.457L337.473 97.0031L334.221 98.6361L342.571 121.738Z" fill="white"/>
<path d="M345.299 98.0933C345.228 98.0932 345.158 98.0779 345.093 98.0484C345.028 98.019 344.97 97.9759 344.923 97.9223C344.88 97.8728 344.847 97.8153 344.826 97.753C344.805 97.6907 344.797 97.6249 344.801 97.5594C344.805 97.4938 344.823 97.4297 344.852 97.3709C344.881 97.312 344.922 97.2595 344.971 97.2163L353.648 89.6533C353.748 89.5663 353.878 89.5224 354.011 89.5314C354.143 89.5404 354.266 89.6015 354.353 89.7013C354.397 89.7509 354.429 89.8084 354.45 89.8707C354.471 89.9331 354.48 89.9989 354.475 90.0645C354.471 90.13 354.453 90.1941 354.424 90.2529C354.395 90.3117 354.354 90.3642 354.304 90.4073L345.628 97.9703C345.537 98.0497 345.42 98.0934 345.299 98.0933V98.0933Z" fill="white"/>
<path d="M352.146 102.946C352.027 102.946 351.913 102.903 351.822 102.826C351.732 102.75 351.672 102.643 351.653 102.526C351.643 102.461 351.645 102.395 351.66 102.331C351.675 102.267 351.703 102.207 351.741 102.154C351.779 102.1 351.828 102.055 351.884 102.021C351.94 101.986 352.002 101.963 352.066 101.952L359.866 100.682C359.997 100.661 360.131 100.693 360.238 100.77C360.346 100.848 360.418 100.964 360.439 101.095C360.45 101.16 360.448 101.226 360.433 101.29C360.418 101.354 360.39 101.414 360.352 101.468C360.313 101.521 360.265 101.566 360.209 101.601C360.153 101.635 360.091 101.659 360.027 101.669L352.226 102.94C352.2 102.944 352.173 102.946 352.146 102.946V102.946Z" fill="white"/>
<path d="M358.277 112.693H353.277C353.145 112.693 353.018 112.641 352.924 112.547C352.83 112.453 352.777 112.326 352.777 112.193C352.777 112.061 352.83 111.934 352.924 111.84C353.018 111.746 353.145 111.693 353.277 111.693H358.277C358.41 111.693 358.537 111.746 358.631 111.84C358.725 111.934 358.777 112.061 358.777 112.193C358.777 112.326 358.725 112.453 358.631 112.547C358.537 112.641 358.41 112.693 358.277 112.693Z" fill="white"/>
<path d="M7.50616 121.306C7.41685 121.306 7.32911 121.282 7.25213 121.237C7.19469 121.203 7.14463 121.158 7.10479 121.105C7.06495 121.052 7.03619 120.991 7.0202 120.926L0.0151906 92.4801C-0.00446548 92.4007 -0.00444042 92.3177 0.0154347 92.2384C0.0353099 92.1591 0.0744421 92.0858 0.129204 92.0251L14.1402 76.5251C14.2292 76.4269 14.3535 76.368 14.4859 76.3615C14.6183 76.3549 14.7478 76.4012 14.8461 76.4901C14.9445 76.579 15.0036 76.7033 15.0103 76.8357C15.0171 76.968 14.9709 77.0977 14.8821 77.1961L1.04913 92.4961L7.86919 120.187L32.9952 113.376L38.2772 93.4761L20.9981 93.0761L17.9572 102.068C17.9362 102.13 17.9031 102.188 17.8599 102.237C17.8167 102.287 17.7641 102.327 17.7053 102.357C17.6464 102.386 17.5823 102.403 17.5168 102.407C17.4512 102.412 17.3854 102.403 17.3232 102.382C17.2609 102.361 17.2033 102.328 17.1539 102.285C17.1044 102.242 17.0639 102.189 17.0347 102.13C17.0056 102.071 16.9883 102.007 16.9839 101.942C16.9795 101.876 16.9882 101.81 17.0092 101.748L20.1691 92.4081C20.1992 92.3047 20.2637 92.2146 20.3519 92.1528C20.44 92.091 20.5466 92.0611 20.6541 92.0681L38.9351 92.4921C39.0107 92.4939 39.0849 92.5129 39.1522 92.5475C39.2194 92.5822 39.2778 92.6316 39.3232 92.6921C39.3687 92.7526 39.3999 92.8226 39.4145 92.8969C39.429 92.9713 39.4266 93.0479 39.4072 93.1211L33.8871 113.909C33.8646 113.994 33.8203 114.071 33.7585 114.133C33.6967 114.195 33.6198 114.24 33.5352 114.263L7.63519 121.284C7.59327 121.297 7.5499 121.304 7.50616 121.306V121.306Z" fill="white"/>
<path d="M34.2771 365.693C31.4934 365.689 28.8247 364.582 26.8563 362.614C24.8879 360.645 23.7805 357.977 23.7771 355.193C23.7805 352.409 24.8879 349.74 26.8563 347.772C28.8247 345.804 31.4934 344.696 34.2771 344.693C37.0608 344.696 39.7295 345.804 41.6979 347.772C43.6663 349.74 44.7737 352.409 44.7771 355.193C44.7737 357.977 43.6663 360.645 41.6979 362.614C39.7295 364.582 37.0608 365.689 34.2771 365.693V365.693ZM34.2771 345.693C31.7584 345.696 29.3435 346.697 27.5625 348.478C25.7815 350.259 24.7797 352.674 24.7771 355.193C24.7797 357.712 25.7815 360.126 27.5625 361.907C29.3435 363.688 31.7584 364.69 34.2771 364.693C36.7958 364.69 39.2107 363.688 40.9917 361.907C42.7727 360.126 43.7745 357.712 43.7771 355.193C43.7745 352.674 42.7727 350.259 40.9917 348.478C39.2107 346.697 36.7958 345.696 34.2771 345.693V345.693Z" fill="white"/>
<path d="M30.5381 514.793C30.4848 514.793 30.4318 514.784 30.3812 514.767L7.2951 507.129C7.2097 507.1 7.1336 507.05 7.07464 506.982C7.01568 506.914 6.97609 506.831 6.96014 506.743C6.9441 506.654 6.95231 506.563 6.98382 506.479C7.01532 506.394 7.06903 506.32 7.13921 506.264L31.6572 486.522C31.7323 486.461 31.8234 486.424 31.9194 486.414C32.0154 486.404 32.1122 486.422 32.1982 486.466C32.2843 486.51 32.3558 486.578 32.4041 486.661C32.4524 486.745 32.4753 486.841 32.4701 486.938L31.0381 514.319C31.0341 514.396 31.0124 514.471 30.9745 514.538C30.9367 514.605 30.8838 514.662 30.8201 514.706C30.737 514.762 30.6388 514.793 30.5381 514.793ZM8.48113 506.467L30.0732 513.612L31.4131 488.003L8.48113 506.467Z" fill="#DF0C12"/>
<path d="M315.777 459.693C320.748 459.693 324.777 455.663 324.777 450.693C324.777 445.722 320.748 441.693 315.777 441.693C310.807 441.693 306.777 445.722 306.777 450.693C306.777 455.663 310.807 459.693 315.777 459.693Z" fill="#DF0C12"/>
<path d="M501.923 541.876C501.854 541.876 501.786 541.863 501.723 541.836L484.409 534.488C484.341 534.459 484.281 534.416 484.232 534.361C484.182 534.306 484.146 534.241 484.125 534.171C484.104 534.1 484.099 534.026 484.11 533.953C484.12 533.881 484.147 533.811 484.188 533.75L504.633 503.178C504.695 503.086 504.785 503.017 504.891 502.982C504.996 502.947 505.109 502.948 505.214 502.985C505.318 503.021 505.408 503.092 505.468 503.184C505.528 503.277 505.556 503.388 505.547 503.498L502.417 541.417C502.41 541.496 502.385 541.572 502.343 541.639C502.302 541.706 502.245 541.762 502.177 541.803C502.1 541.85 502.013 541.875 501.923 541.876V541.876ZM485.36 533.803L501.481 540.645L504.396 505.339L485.36 533.803Z" fill="white"/>
<path d="M429.335 153.192L412.777 146.505C412.711 146.478 412.651 146.437 412.601 146.386C412.552 146.334 412.515 146.272 412.491 146.205C412.468 146.137 412.46 146.065 412.467 145.993C412.474 145.922 412.497 145.853 412.533 145.791L437.051 103.875C437.11 103.774 437.202 103.697 437.312 103.658C437.421 103.618 437.541 103.617 437.651 103.657C437.761 103.696 437.853 103.773 437.912 103.874C437.971 103.975 437.993 104.093 437.974 104.209L430.014 152.809C430.002 152.883 429.974 152.953 429.931 153.015C429.888 153.077 429.831 153.128 429.766 153.165C429.691 153.207 429.607 153.229 429.521 153.229C429.457 153.228 429.394 153.216 429.335 153.192Z" fill="#DF0C12"/>
<path d="M495.277 55.6929C500.524 55.6929 504.777 51.4396 504.777 46.1929C504.777 40.9462 500.524 36.6929 495.277 36.6929C490.03 36.6929 485.777 40.9462 485.777 46.1929C485.777 51.4396 490.03 55.6929 495.277 55.6929Z" fill="white"/>
</svg>
